# xmcd
#
# Track frame offsets:
#	150
#	14001
#	35252
#	48312
#	63687
#	79323
#	98583
#	113061
#	127820
#	146918
#	161664
#	178256
#	199003
#	215739
#	231376
#	246771
#	260261
#	278081
#	288778
#	304218
#	318645
#	334614
#	349855
#
# Disc length: 4934 seconds
# Revision: 0
# Processed by: cddbd v1.5.2PL0 Copyright (c) Steve Scherf et al.
# Submitted via: dBpowerAMP V12.0
#
DISCID=5d134417
DTITLE=Nic Pizzolatto - Galveston 5
DYEAR=2014
DGENRE=Hörbuch
TTITLE0=097
TTITLE1=098
TTITLE2=099
TTITLE3=100
TTITLE4=101
TTITLE5=102
TTITLE6=103
TTITLE7=104
TTITLE8=105
TTITLE9=106
TTITLE10=107
TTITLE11=108
TTITLE12=109
TTITLE13=110
TTITLE14=111
TTITLE15=112
TTITLE16=113
TTITLE17=114
TTITLE18=115
TTITLE19=116
TTITLE20=117
TTITLE21=118
TTITLE22=119
EXTD=
EXTT0=
EXTT1=
EXTT2=
EXTT3=
EXTT4=
EXTT5=
EXTT6=
EXTT7=
EXTT8=
EXTT9=
EXTT10=
EXTT11=
EXTT12=
EXTT13=
EXTT14=
EXTT15=
EXTT16=
EXTT17=
EXTT18=
EXTT19=
EXTT20=
EXTT21=
EXTT22=
PLAYORDER=
